<?xml version="1.0" encoding="UTF-8" standalone="no"?>
<!-- Created with Inkscape (http://www.inkscape.org/) -->

<svg
   xmlns:dc="http://purl.org/dc/elements/1.1/"
   xmlns:cc="http://creativecommons.org/ns#"
   xmlns:rdf="http://www.w3.org/1999/02/22-rdf-syntax-ns#"
   xmlns:svg="http://www.w3.org/2000/svg"
   xmlns="http://www.w3.org/2000/svg"
   xmlns:xlink="http://www.w3.org/1999/xlink"
   xmlns:sodipodi="http://sodipodi.sourceforge.net/DTD/sodipodi-0.dtd"
   xmlns:inkscape="http://www.inkscape.org/namespaces/inkscape"
   width="250"
   height="250"
   id="svg2"
   version="1.1"
   inkscape:version="0.48.2 r9819"
   sodipodi:docname="image.svg"
   inkscape:export-filename="/Users/stuartlowe/Projects/multiwavelength-universe/images/image.png"
   inkscape:export-xdpi="119.75"
   inkscape:export-ydpi="119.75">
  <defs
     id="defs4">
    <linearGradient
       id="linearGradient3762">
      <stop
         style="stop-color:#ededed;stop-opacity:1;"
         offset="0"
         id="stop3764" />
      <stop
         style="stop-color:#dcdcdc;stop-opacity:1;"
         offset="1"
         id="stop3766" />
    </linearGradient>
    <radialGradient
       inkscape:collect="always"
       xlink:href="#linearGradient3762"
       id="radialGradient3768"
       cx="125"
       cy="125"
       fx="125"
       fy="125"
       r="125"
       gradientUnits="userSpaceOnUse" />
  </defs>
  <sodipodi:namedview
     id="base"
     pagecolor="#ffffff"
     bordercolor="#666666"
     borderopacity="1.0"
     inkscape:pageopacity="0.0"
     inkscape:pageshadow="2"
     inkscape:zoom="1.979899"
     inkscape:cx="25.004108"
     inkscape:cy="137.16747"
     inkscape:document-units="px"
     inkscape:current-layer="layer1"
     showgrid="true"
     inkscape:window-width="1147"
     inkscape:window-height="696"
     inkscape:window-x="0"
     inkscape:window-y="0"
     inkscape:window-maximized="0">
    <inkscape:grid
       type="xygrid"
       id="grid2985"
       empspacing="5"
       visible="true"
       enabled="true"
       snapvisiblegridlinesonly="true" />
  </sodipodi:namedview>
  <metadata
     id="metadata7">
    <rdf:RDF>
      <cc:Work
         rdf:about="">
        <dc:format>image/svg+xml</dc:format>
        <dc:type
           rdf:resource="http://purl.org/dc/dcmitype/StillImage" />
        <dc:title></dc:title>
      </cc:Work>
    </rdf:RDF>
  </metadata>
  <g
     inkscape:label="Layer 1"
     inkscape:groupmode="layer"
     id="layer1"
     transform="translate(0,-802.36218)">
    <rect
       style="fill:url(#radialGradient3768);fill-opacity:1.0;stroke:none"
       id="rect2987"
       width="250"
       height="250"
       x="0"
       y="0"
       transform="translate(0,802.36218)" />
    <g
       id="g3828">
      <path
         id="rect3780"
         d="m 65,882.36218 0,90 120,0 0,-90 z m 10,10 100,0 0,69.99999 -100,0 z"
         style="fill:#ffffff;fill-opacity:1;stroke:none"
         inkscape:connector-curvature="0"
         sodipodi:nodetypes="cccccccccc" />
      <path
         transform="matrix(0.6630435,0,0,0.39210528,65.326085,882.27007)"
         d="m 100,105 a 10,10 0 1 1 -20,0 10,10 0 1 1 20,0 z"
         sodipodi:ry="10"
         sodipodi:rx="10"
         sodipodi:cy="105"
         sodipodi:cx="90"
         id="path3774"
         style="fill:#ffffff;fill-opacity:1;stroke:none"
         sodipodi:type="arc" />
      <path
         sodipodi:nodetypes="csszsscsszzczc"
         inkscape:connector-curvature="0"
         id="path3815"
         d="m 123.84333,920.42214 c 0,0 9.25337,-2.31334 16.1934,4.62669 6.94003,6.94003 2.31334,13.88006 -2.31335,16.1934 -8.77852,4.38926 -25.44677,4.62669 -39.326827,-6.94003 -13.880058,-11.56671 -11.566715,-20.82008 -2.313343,-27.76011 9.25337,-6.94003 30.07346,-4.62669 39.32683,-2.31335 9.25337,2.31335 27.76012,16.1934 27.76012,16.1934 0,0 -13.88006,-9.25337 -25.44678,-13.88005 -11.56671,-4.62669 -32.65413,-2.69119 -39.326827,2.31334 -9.253372,6.94003 -4.626686,18.50674 6.940027,25.44677 11.56672,6.94003 25.44677,6.94003 30.07346,2.31335 4.62669,-4.62669 -2.31334,-11.56672 -6.94003,-11.56672 0,0 -2.31334,2.31334 -4.62668,0 -2.31335,-2.31334 0,-4.62669 0,-4.62669 z"
         style="fill:#ffffff;fill-opacity:1;stroke:none" />
      <path
         style="fill:#ffffff;fill-opacity:1;stroke:none"
         d="m 125,927.36218 c 0,0 -10.41004,1.15667 -16.1934,-4.62669 -5.78336,-5.78336 -2.31335,-9.25337 2.31334,-11.56671 8.77852,-4.38926 25.44677,-4.62669 39.32683,6.94003 13.88006,11.56671 11.56672,23.13343 2.31334,30.07345 -9.25337,6.94004 -30.07345,4.62669 -39.32683,2.31335 -9.25337,-2.31335 -27.760112,-16.1934 -27.760112,-16.1934 0,0 13.880062,9.25337 25.446772,13.88005 11.56672,4.62669 32.65413,2.69119 39.32683,-2.31334 9.25337,-6.94003 4.62669,-20.82009 -6.94003,-27.76011 -11.56671,-6.94003 -25.44677,-6.94003 -30.07346,-2.31335 -4.62668,4.62669 2.31335,6.94003 6.94003,6.94003 0,0 2.31335,-2.31334 4.62669,0 2.31334,2.31334 0,4.62669 0,4.62669 z"
         id="path3817"
         inkscape:connector-curvature="0"
         sodipodi:nodetypes="czszsscsszzczc" />
    </g>
    <path
       style="fill:#ffffff;fill-opacity:1;stroke:none"
       d="M 161.46875 65 L 103.5 80 L 143.40625 80 L 154.28125 77.1875 L 155 80 L 165.34375 80 L 161.46875 65 z M 65 89.96875 L 45.28125 95.0625 L 67.8125 182.1875 L 114.96875 170 L 75 170 L 65 170 L 65 131.34375 L 57.46875 102.21875 L 65 100.28125 L 65 89.96875 z M 180 136.6875 L 180 153.1875 L 184 152.15625 L 180 136.6875 z "
       transform="translate(0,802.36218)"
       id="path3836" />
  </g>
</svg>
